<svg xmlns="http://www.w3.org/2000/svg" width="540" height="960" viewBox="0 0 540 960">
  <rect width="540" height="960" fill="#0F0F1A"/>
  <!-- status bar -->
  <text x="28" y="52" font-family="sans-serif" font-size="22" fill="#FFFFFF">9:41</text>
  <rect x="380" y="32" width="132" height="26" rx="8" fill="#1A1A2E"/>
  <!-- top bar -->
  <text x="28" y="120" font-family="sans-serif" font-weight="bold" font-size="30" fill="#FFFFFF">Velnime</text>
  <circle cx="492" cy="108" r="16" fill="#1A1A2E"/>
  <!-- hero card -->
  <rect x="28" y="160" width="484" height="200" rx="18" fill="#1A1A2E"/>
  <rect x="28" y="160" width="484" height="200" rx="18" fill="url(#g)"/>
  <defs><linearGradient id="g" x1="0" y1="0" x2="1" y2="1">
    <stop offset="0" stop-color="#FF6B1A" stop-opacity="0.55"/>
    <stop offset="1" stop-color="#FF6B1A" stop-opacity="0.12"/>
  </linearGradient></defs>
  <text x="52" y="236" font-family="sans-serif" font-weight="bold" font-size="26" fill="#FFFFFF">Ongoing Minggu Ini</text>
  <text x="52" y="276" font-family="sans-serif" font-size="18" fill="#CFCFDD">12 anime update terbaru</text>
  <rect x="52" y="300" width="130" height="40" rx="20" fill="#FF6B1A"/>
  <text x="74" y="327" font-family="sans-serif" font-weight="bold" font-size="17" fill="#0F0F1A">Lanjut</text>
  <!-- section -->
  <text x="28" y="404" font-family="sans-serif" font-weight="bold" font-size="24" fill="#FFFFFF">Terbaru</text>
  <!-- poster grid 3 col -->
  <g>
    <rect x="28" y="424" width="148" height="216" rx="12" fill="#1A1A2E"/>
    <rect x="28" y="424" width="148" height="216" rx="12" fill="#FF6B1A" opacity="0.25"/>
    <rect x="196" y="424" width="148" height="216" rx="12" fill="#1A1A2E"/>
    <rect x="364" y="424" width="148" height="216" rx="12" fill="#1A1A2E"/>
  </g>
  <g>
    <rect x="28" y="660" width="148" height="216" rx="12" fill="#1A1A2E"/>
    <rect x="196" y="660" width="148" height="216" rx="12" fill="#1A1A2E"/>
    <rect x="364" y="660" width="148" height="216" rx="12" fill="#1A1A2E"/>
  </g>
  <!-- bottom nav -->
  <rect x="0" y="900" width="540" height="60" fill="#0F0F1A"/>
  <rect x="28" y="906" width="40" height="4" rx="2" fill="#FF6B1A"/>
  <circle cx="130" cy="930" r="10" fill="#1A1A2E"/>
  <circle cx="230" cy="930" r="10" fill="#1A1A2E"/>
  <circle cx="330" cy="930" r="10" fill="#1A1A2E"/>
  <circle cx="430" cy="930" r="10" fill="#1A1A2E"/>
</svg>
